PathFileType  4	(X/Y/Z) D:/Data/Berkelmans/SUB01/trc/slow_skatebelt
DataRate	CameraRate	NumFrames	NumMarkers	Units	OrigDataRate	OrigDataStartFrame	OrigNumFrames
100.0	100.0	9	31	m	100.0	501	800
Frame#	Time	LCAL			RCAL			C7			LSHO			RTIB2			RFEM2			LFEM2			RTIB3			RFEM1			LSIPS			RTIB1			LTIB2			RFEM3			RSHO			RKNEE_med			LKNEE_lat			RKNEE_lat			LMTP5			RMTP5			RSIAS			RSIPS			LSIAS			LKNEE_med			LANK_lat			LANK_med			RANK_lat			RANK_med			LTIB3			LTIB1			LFEM3			LFEM1			
		X1	Y1	Z1	X2	Y2	Z2	X3	Y3	Z3	X4	Y4	Z4	X5	Y5	Z5	X6	Y6	Z6	X7	Y7	Z7	X8	Y8	Z8	X9	Y9	Z9	X10	Y10	Z10	X11	Y11	Z11	X12	Y12	Z12	X13	Y13	Z13	X14	Y14	Z14	X15	Y15	Z15	X16	Y16	Z16	X17	Y17	Z17	X18	Y18	Z18	X19	Y19	Z19	X20	Y20	Z20	X21	Y21	Z21	X22	Y22	Z22	X23	Y23	Z23	X24	Y24	Z24	X25	Y25	Z25	X26	Y26	Z26	X27	Y27	Z27	X28	Y28	Z28	X29	Y29	Z29	X30	Y30	Z30	X31	Y31	Z31	

501	2.0100000	-0.3418444	0.1787317	-0.0335633	-0.2567191	0.0619296	0.0593866	-0.3371190	1.3931176	0.0119588	-0.2585148	1.4388911	-0.1254392	-0.2004403	0.3171991	0.1753123	-0.1954041	0.5730749	0.2021938	-0.1578175	0.6057050	-0.1205499	-0.2539821	0.3262473	0.1448320	-0.2526698	0.6636755	0.2166514	-0.3283857	1.0350552	-0.0099898	-0.2186510	0.3842362	0.1773407	-0.1859643	0.4016625	-0.1295513	-0.2467082	0.5832872	0.1742812	-0.2378118	1.4038047	0.2443741	-0.1331961	0.5158143	0.0751297	-0.0596293	0.5026614	-0.1210457	-0.1306223	0.4940472	0.1654369	-0.2313524	0.0730471	-0.1200710	-0.1018800	0.0465754	0.1397359	-0.1188684	0.9880681	0.1539307	-0.3193888	1.0301630	0.1041100	-0.1373558	0.9884354	-0.0721473	-0.0414365	0.5143776	-0.0234459	-0.2768627	0.1800601	-0.0970997	-0.2489348	0.1746277	-0.0216537	-0.1998430	0.0997522	0.1142394	-0.1760580	0.1140641	0.0349583	-0.2127977	0.4299321	-0.0868566	-0.1641201	0.4662347	-0.1202396	-0.1966451	0.6051076	-0.0646554	-0.2346026	0.6754845	-0.1078349
502	2.0200000	-0.3258764	0.1684160	-0.0349781	-0.2623473	0.0621509	0.0594161	-0.3376863	1.3939421	0.0121290	-0.2588407	1.4397223	-0.1254191	-0.2057388	0.3172671	0.1751502	-0.2001889	0.5735868	0.2020260	-0.1574939	0.6070701	-0.1211856	-0.2594410	0.3263849	0.1448175	-0.2565245	0.6649272	0.2155731	-0.3291156	1.0360761	-0.0105268	-0.2241655	0.3843636	0.1772435	-0.1801919	0.3987925	-0.1301536	-0.2511274	0.5843202	0.1737856	-0.2380403	1.4044761	0.2443653	-0.1378959	0.5156490	0.0750005	-0.0578368	0.5048609	-0.1209137	-0.1358758	0.4940740	0.1651516	-0.2096943	0.0686862	-0.1227645	-0.1076573	0.0465710	0.1397203	-0.1200492	0.9883714	0.1536684	-0.3201914	1.0310996	0.1036004	-0.1381369	0.9891073	-0.0724129	-0.0400239	0.5167145	-0.0237554	-0.2666241	0.1719879	-0.0966680	-0.2323866	0.1682194	-0.0232863	-0.2054959	0.0996309	0.1142511	-0.1813549	0.1139289	0.0348607	-0.2085311	0.4259650	-0.0875074	-0.1608320	0.4642279	-0.1211129	-0.1954495	0.6065713	-0.0647726	-0.2340007	0.6768887	-0.1072768
503	2.0300000	-0.3089798	0.1562465	-0.0357659	-0.2680334	0.0620480	0.0594313	-0.3380723	1.3948613	0.0121858	-0.2594101	1.4405484	-0.1255323	-0.2114333	0.3173435	0.1750403	-0.2051845	0.5741120	0.2018158	-0.1579758	0.6081977	-0.1223751	-0.2650082	0.3265955	0.1447582	-0.2604267	0.6662516	0.2144985	-0.3298604	1.0370504	-0.0110281	-0.2296075	0.3844402	0.1771400	-0.1743767	0.3952874	-0.1308137	-0.2557305	0.5852340	0.1733502	-0.2383125	1.4050342	0.2442592	-0.1432642	0.5154480	0.0747364	-0.0563757	0.5069436	-0.1206281	-0.1411482	0.4940625	0.1648533	-0.1880668	0.0645150	-0.1258425	-0.1133776	0.0465743	0.1398092	-0.1211575	0.9884866	0.1534066	-0.3210518	1.0318855	0.1030834	-0.1390046	0.9898548	-0.0725632	-0.0390201	0.5188118	-0.0239334	-0.2501405	0.1641787	-0.0980982	-0.2153583	0.1615104	-0.0249244	-0.2110907	0.0998246	0.1141596	-0.1870407	0.1139070	0.0348614	-0.2031510	0.4209165	-0.0889681	-0.1583007	0.4616030	-0.1218977	-0.1951061	0.6077618	-0.0653047	-0.2337143	0.6784902	-0.1069058
504	2.0400000	-0.2901395	0.1450154	-0.0368675	-0.2736523	0.0620574	0.0593977	-0.3383276	1.3956157	0.0121200	-0.2599587	1.4413506	-0.1256199	-0.2169463	0.3175421	0.1749373	-0.2100179	0.5745293	0.2015052	-0.1590560	0.6091549	-0.1238064	-0.2705969	0.3266408	0.1446262	-0.2640799	0.6674755	0.2135183	-0.3305142	1.0380533	-0.0116760	-0.2352351	0.3845141	0.1770015	-0.1688660	0.3913220	-0.1312317	-0.2608647	0.5861309	0.1722342	-0.2385010	1.4055684	0.2441778	-0.1484332	0.5152405	0.0746217	-0.0561305	0.5085701	-0.1202183	-0.1464630	0.4939070	0.1646727	-0.1657371	0.0605899	-0.1287202	-0.1190668	0.0465383	0.1400395	-0.1221709	0.9885873	0.1531356	-0.3219417	1.0327429	0.1024797	-0.1397428	0.9902680	-0.0728557	-0.0390884	0.5203755	-0.0240182	-0.2328600	0.1564883	-0.0996875	-0.1976318	0.1548509	-0.0267730	-0.2166406	0.0997096	0.1141939	-0.1926687	0.1138318	0.0348554	-0.1991559	0.4156080	-0.0898998	-0.1562632	0.4583407	-0.1225599	-0.1957273	0.6086529	-0.0663879	-0.2339669	0.6802211	-0.1071530
505	2.0500000	-0.2711391	0.1336877	-0.0377755	-0.2792967	0.0620524	0.0593653	-0.3385645	1.3965513	0.0120814	-0.2602832	1.4419106	-0.1257640	-0.2227732	0.3175675	0.1747790	-0.2146892	0.5750654	0.2011761	-0.1602782	0.6098859	-0.1252594	-0.2763024	0.3269209	0.1444106	-0.2677642	0.6686196	0.2127006	-0.3310798	1.0389230	-0.0122931	-0.2408697	0.3847225	0.1767719	-0.1634529	0.3870733	-0.1313141	-0.2645196	0.5872943	0.1722358	-0.2387686	1.4059645	0.2440205	-0.1538571	0.5152136	0.0743882	-0.0565876	0.5097764	-0.1196959	-0.1518194	0.4938380	0.1644437	-0.1431438	0.0572293	-0.1318849	-0.1248484	0.0465209	0.1401177	-0.1233499	0.9885830	0.1528894	-0.3226868	1.0335227	0.1017569	-0.1403334	0.9905356	-0.0731305	-0.0401101	0.5214319	-0.0239205	-0.2153716	0.1487898	-0.1009478	-0.1789417	0.1484594	-0.0284672	-0.2223254	0.0998103	0.1142433	-0.1985100	0.1139705	0.0350764	-0.1956951	0.4100340	-0.0905677	-0.1548581	0.4548263	-0.1229476	-0.1971829	0.6091133	-0.0681713	-0.2344234	0.6816101	-0.1082685
506	2.0600000	-0.2519324	0.1224850	-0.0387855	-0.2849729	0.0621223	0.0593744	-0.3386855	1.3972732	0.0119431	-0.2605847	1.4427430	-0.1260000	-0.2285717	0.3176966	0.1747963	-0.2194424	0.5756498	0.2007333	-0.1612184	0.6105809	-0.1267940	-0.2820518	0.3269868	0.1440457	-0.2716587	0.6696326	0.2119811	-0.3314515	1.0396432	-0.0130427	-0.2467184	0.3848908	0.1764873	-0.1583392	0.3826372	-0.1312511	-0.2688931	0.5883495	0.1715503	-0.2391184	1.4064916	0.2437329	-0.1590205	0.5151154	0.0743741	-0.0574421	0.5105294	-0.1193382	-0.1569849	0.4938116	0.1644607	-0.1201937	0.0545174	-0.1347333	-0.1304992	0.0464734	0.1401927	-0.1241730	0.9885117	0.1526615	-0.3234265	1.0342044	0.1010779	-0.1408528	0.9908432	-0.0733858	-0.0417534	0.5221245	-0.0238094	-0.1973552	0.1414001	-0.1024325	-0.1601599	0.1426105	-0.0302147	-0.2281361	0.0997543	0.1143212	-0.2064669	0.1132356	0.0348760	-0.1924324	0.4038491	-0.0909289	-0.1535571	0.4507096	-0.1231541	-0.1994106	0.6090880	-0.0703795	-0.2353606	0.6823173	-0.1102629
507	2.0700000	-0.2310572	0.1118552	-0.0399703	-0.2905581	0.0620265	0.0593681	-0.3387931	1.3985847	0.0118826	-0.2605221	1.4432573	-0.1262476	-0.2344991	0.3178517	0.1745602	-0.2240840	0.5760729	0.2004218	-0.1620848	0.6110638	-0.1281302	-0.2878420	0.3272454	0.1436890	-0.2753221	0.6705104	0.2113044	-0.3318985	1.0404908	-0.0137980	-0.2526321	0.3850133	0.1761617	-0.1541493	0.3780135	-0.1309388	-0.2732865	0.5894050	0.1712073	-0.2394287	1.4067126	0.2434797	-0.1641305	0.5149504	0.0743082	-0.0590358	0.5107288	-0.1187728	-0.1626027	0.4937414	0.1642815	-0.0971794	0.0526521	-0.1371630	-0.1362384	0.0464201	0.1401665	-0.1253253	0.9883366	0.1524114	-0.3241085	1.0347990	0.1002828	-0.1412893	0.9910080	-0.0737678	-0.0444883	0.5221429	-0.0235297	-0.1788745	0.1346141	-0.1039138	-0.1412092	0.1377216	-0.0319468	-0.2337785	0.0997499	0.1143958	-0.2122211	0.1135153	0.0350263	-0.1893210	0.3972182	-0.0908288	-0.1531020	0.4464221	-0.1227069	-0.2022566	0.6086391	-0.0726973	-0.2369646	0.6824697	-0.1128949
508	2.0800000	-0.2106870	0.1027542	-0.0413304	-0.2963771	0.0620991	0.0594261	-0.3386268	1.3993925	0.0118532	-0.2604318	1.4437130	-0.1264613	-0.2404453	0.3180539	0.1746778	-0.2287472	0.5765603	0.2002449	-0.1631115	0.6111922	-0.1291271	-0.2936271	0.3274322	0.1432856	-0.2791601	0.6715775	0.2106482	-0.3321538	1.0410230	-0.0146446	-0.2583794	0.3852224	0.1759309	-0.1500165	0.3732972	-0.1310147	-0.2777685	0.5904976	0.1707996	-0.2395390	1.4068892	0.2431863	-0.1693462	0.5147114	0.0743373	-0.0612159	0.5106003	-0.1181587	-0.1678967	0.4936268	0.1643720	-0.0742424	0.0517610	-0.1393965	-0.1417753	0.0464064	0.1405147	-0.1261978	0.9881060	0.1521210	-0.3246512	1.0353862	0.0994236	-0.1417808	0.9911189	-0.0741998	-0.0473856	0.5219622	-0.0231181	-0.1602335	0.1285388	-0.1056012	-0.1220107	0.1333000	-0.0330986	-0.2396323	0.0996856	0.1144121	-0.2177202	0.1133121	0.0350958	-0.1861830	0.3902620	-0.0905648	-0.1532964	0.4418910	-0.1220942	-0.2056870	0.6076309	-0.0749175	-0.2387595	0.6821165	-0.1159407
509	2.0900000	-0.1910286	0.0946081	-0.0435473	-0.3021789	0.0620460	0.0595320	-0.3385909	1.4004961	0.0118439	-0.2604604	1.4442326	-0.1267184	-0.2463798	0.3182216	0.1746755	-0.2334868	0.5770786	0.2001949	-0.1641729	0.6110111	-0.1294486	-0.2994199	0.3276475	0.1429997	-0.2828170	0.6727156	0.2101511	-0.3324026	1.0414225	-0.0154843	-0.2642889	0.3853506	0.1757421	-0.1472613	0.3697131	-0.1318641	-0.2819978	0.5912578	0.1705290	-0.2396766	1.4069246	0.2427842	-0.1743314	0.5144749	0.0745462	-0.0642605	0.5100651	-0.1178991	-0.1734073	0.4935551	0.1644283	-0.0510521	0.0522698	-0.1412216	-0.1477802	0.0463639	0.1405728	-0.1268781	0.9878648	0.1518259	-0.3253177	1.0357744	0.0984835	-0.1420086	0.9911573	-0.0745703	-0.0512229	0.5211712	-0.0231115	-0.1414294	0.1234597	-0.1072898	-0.1044949	0.1295304	-0.0343384	-0.2452363	0.0996842	0.1143976	-0.2235002	0.1133043	0.0351148	-0.1855851	0.3844406	-0.0923640	-0.1531417	0.4370443	-0.1215924	-0.2093371	0.6069745	-0.0770522	-0.2409990	0.6812803	-0.1190798
